<?xml version="1.0" encoding="utf-8"?>
<!-- Generator: Adobe Illustrator 25.3.0, SVG Export Plug-In . SVG Version: 6.00 Build 0)  -->
<svg version="1.1" id="Calque_1" xmlns="http://www.w3.org/2000/svg" xmlns:xlink="http://www.w3.org/1999/xlink" x="0px" y="0px"
	 viewBox="0 0 884 997" style="enable-background:new 0 0 884 997;" xml:space="preserve">
<style type="text/css">
	.st0{fill:#FFFFFF;}
	.st1{fill:url(#SVGID_1_);}
	.st2{fill:#98A0A6;}
	.st3{fill:url(#SVGID_2_);}
	.st4{fill:url(#SVGID_3_);}
	.st5{fill:url(#SVGID_4_);}
	.st6{fill:url(#SVGID_5_);}
	.st7{fill:#365673;}
	.st8{fill:url(#SVGID_6_);}
	.st9{fill:url(#SVGID_7_);}
	.st10{fill:url(#SVGID_8_);}
	.st11{fill:url(#SVGID_9_);}
	.st12{fill:url(#SVGID_10_);}
	.st13{fill:url(#SVGID_11_);}
	.st14{fill:#102540;}
	.st15{fill:url(#SVGID_12_);}
</style>
<rect x="169" y="184" class="st0" width="432" height="649"/>
<g>
	<linearGradient id="SVGID_1_" gradientUnits="userSpaceOnUse" x1="233" y1="129" x2="539" y2="129">
		<stop  offset="0.9724" style="stop-color:#31646F"/>
		<stop  offset="1" style="stop-color:#31646F;stop-opacity:0.5"/>
	</linearGradient>
	<path class="st1" d="M239,112h81l21-32l28-12l20-4l26,4l14,20l12,24h16c0,0,40,3,43,2s32,0,32,0l7,20v42l-4,18l-45-3l-76-2l-89-2
		c0,0-60,2-62,2s-30-1-30-1L239,112z"/>
	<path class="st2" d="M558.3,208.5h-345v-115h98.25c8.55-33.02,38.6-57.5,74.25-57.5s65.72,24.48,74.23,57.5h98.27V208.5z
		 M251.03,170.77h267.74v-37.74l-95.23,0v-18.35c0-18.4-12.66-34.79-30.71-38.37c-24.76-4.91-46.56,13.83-46.56,37.55v19.17h-95.23
		L251.03,170.77L251.03,170.77z"/>
	
		<linearGradient id="SVGID_2_" gradientUnits="userSpaceOnUse" x1="-657.6912" y1="338.0226" x2="-592.8354" y2="338.0226" gradientTransform="matrix(10.6667 0 0 10.6667 7054.3945 -3061.9685)">
		<stop  offset="0" style="stop-color:#102540"/>
		<stop  offset="0.3488" style="stop-color:#546779"/>
		<stop  offset="0.7953" style="stop-color:#A5B7BE"/>
		<stop  offset="1" style="stop-color:#C5D7D9"/>
	</linearGradient>
	<polygon class="st3" points="596.03,131.23 596.03,170.77 633.77,170.77 633.77,860.77 136.03,860.77 136.03,170.77 173.77,170.77 
		173.77,131.23 39,131.23 39,956 730.8,956 730.8,131.23 	"/>
	<linearGradient id="SVGID_3_" gradientUnits="userSpaceOnUse" x1="96.5" y1="514.8672" x2="673.2969" y2="514.8672">
		<stop  offset="0" style="stop-color:#31646F"/>
		<stop  offset="1" style="stop-color:#31646F;stop-opacity:0.5"/>
	</linearGradient>
	<polygon class="st4" points="673.3,898.5 96.5,898.5 96.5,131.23 173.77,131.23 173.77,170.77 136.03,170.77 136.03,860.77 
		633.77,860.77 633.77,170.77 596.03,170.77 596.03,131.23 673.3,131.23 	"/>
	
		<linearGradient id="SVGID_4_" gradientUnits="userSpaceOnUse" x1="-589.2978" y1="337.9945" x2="-582.0542" y2="337.9945" gradientTransform="matrix(10.6667 0 0 10.6667 7054.3945 -3061.9685)">
		<stop  offset="0" style="stop-color:#FD6330"/>
		<stop  offset="1" style="stop-color:#FD8530"/>
	</linearGradient>
	<polygon class="st5" points="768.53,878.73 807.16,955.4 845.8,878.73 845.8,131.23 768.53,131.23 	"/>
	
		<linearGradient id="SVGID_5_" gradientUnits="userSpaceOnUse" x1="-589.2978" y1="306.5212" x2="-582.0542" y2="306.5212" gradientTransform="matrix(10.6667 0 0 10.6667 7054.3945 -3061.9685)">
		<stop  offset="0" style="stop-color:#6B2B12"/>
		<stop  offset="1" style="stop-color:#6B3D17"/>
	</linearGradient>
	<rect x="768.53" y="188.73" class="st6" width="77.27" height="37.73"/>
</g>
<g id="T">
	<rect x="268.62" y="532.14" class="st7" width="26.52" height="201.26"/>
	<linearGradient id="SVGID_6_" gradientUnits="userSpaceOnUse" x1="197" y1="520.0782" x2="367" y2="520.0782">
		<stop  offset="0" style="stop-color:#102540"/>
		<stop  offset="1" style="stop-color:#102540"/>
	</linearGradient>
	<rect x="197" y="507.94" class="st8" width="170" height="24.29"/>
	<linearGradient id="SVGID_7_" gradientUnits="userSpaceOnUse" x1="409" y1="588.8312" x2="560" y2="588.8312">
		<stop  offset="0.3628" style="stop-color:#102540"/>
		<stop  offset="1" style="stop-color:#102540;stop-opacity:0.6"/>
	</linearGradient>
	<rect x="409" y="576.57" class="st9" width="151" height="24.52"/>
	<linearGradient id="SVGID_8_" gradientUnits="userSpaceOnUse" x1="409" y1="789.7402" x2="560" y2="789.7402">
		<stop  offset="0.1277" style="stop-color:#102540"/>
		<stop  offset="1" style="stop-color:#102540;stop-opacity:0.6"/>
	</linearGradient>
	<rect x="409" y="777.48" class="st10" width="151" height="24.52"/>
	<linearGradient id="SVGID_9_" gradientUnits="userSpaceOnUse" x1="432.9494" y1="689.951" x2="527.4165" y2="689.951">
		<stop  offset="0" style="stop-color:#102540"/>
		<stop  offset="1" style="stop-color:#102540;stop-opacity:0.6"/>
	</linearGradient>
	<rect x="432.95" y="677.69" class="st11" width="94.47" height="24.52"/>
	<linearGradient id="SVGID_10_" gradientUnits="userSpaceOnUse" x1="404.8839" y1="689.4703" x2="531.0371" y2="690.2587">
		<stop  offset="0" style="stop-color:#102540"/>
		<stop  offset="1" style="stop-color:#102540"/>
	</linearGradient>
	<rect x="409" y="601.09" class="st12" width="23.95" height="176.96"/>
	<g id="o">
		<linearGradient id="SVGID_11_" gradientUnits="userSpaceOnUse" x1="408.9008" y1="420.6705" x2="579" y2="420.6705">
			<stop  offset="0" style="stop-color:#102540"/>
			<stop  offset="1" style="stop-color:#102540;stop-opacity:0.6"/>
		</linearGradient>
		<path class="st13" d="M493.95,308c-46.97,0-85.05,50.44-85.05,112.67s38.08,112.67,85.05,112.67S579,482.9,579,420.67
			S540.92,308,493.95,308z M494.31,507.9c-36.27,0-65.68-38.96-65.68-87.01c0-48.06,29.41-87.01,65.68-87.01
			c36.27,0,65.68,38.96,65.68,87.01C559.99,468.94,530.59,507.9,494.31,507.9z"/>
	</g>
	<g id="N">
		<path class="st7" d="M196,455V226c9.09,11.79,18.17,23.58,27.26,35.37c0,64.54,0,129.08,0,193.63H196z"/>
		<rect x="341.4" y="226" class="st7" width="27.26" height="229"/>
		<polygon class="st14" points="196,226 226.03,226 368.66,455 336.75,455 		"/>
	</g>
</g>
<linearGradient id="SVGID_12_" gradientUnits="userSpaceOnUse" x1="695" y1="17" x2="695" y2="17">
	<stop  offset="1" style="stop-color:#102540"/>
	<stop  offset="1" style="stop-color:#102540;stop-opacity:0.6"/>
</linearGradient>
<path class="st15" d="M695,17"/>
</svg>
